<svg xmlns="http://www.w3.org/2000/svg" width="256" height="256" viewBox="0 0 100 100"><rect width="100" height="100" rx="20" fill="#008080"></rect><path d="M53.54 68.59L53.54 70.27L39.15 70.27L39.15 68.59Q40.31 68.13 41.47 67.81Q42.63 67.49 43.85 67.20L43.85 67.20L43.85 41.10L44.08 34.31L43.62 34.31L41.71 40.52L29.82 70.27L28.31 70.27L17.00 40.52L14.91 33.73L14.39 33.73L14.45 41.10L14.45 67.20Q15.55 67.43 16.65 67.78Q17.75 68.13 18.85 68.59L18.85 68.59L18.85 70.27L6.73 70.27L6.73 68.59Q7.83 68.13 9.02 67.75Q10.21 67.37 11.43 67.14L11.43 67.14L11.43 32.80Q10.21 32.57 9.02 32.19Q7.83 31.82 6.67 31.35L6.67 31.35L6.67 29.67L18.56 29.67L28.66 56.18L30.63 62.15L30.69 62.15L32.66 56.06L43.10 29.67L53.60 29.67L53.60 31.35Q52.55 31.82 51.45 32.19Q50.35 32.57 49.19 32.80L49.19 32.80L49.19 67.25Q50.41 67.49 51.48 67.81Q52.55 68.13 53.54 68.59L53.54 68.59ZM62.53 70.27L56.96 70.27L56.96 68.59Q58.99 67.66 61.72 67.20L61.72 67.20L61.72 32.80Q60.38 32.51 59.16 32.14Q57.95 31.76 56.96 31.35L56.96 31.35L56.96 29.67L62.88 29.67Q63.86 29.67 65.20 29.61Q66.53 29.55 67.95 29.47Q69.37 29.38 70.68 29.29Q71.98 29.21 72.85 29.21L72.85 29.21Q82.71 29.21 88.02 34.48Q93.33 39.76 93.33 49.45L93.33 49.45Q93.33 54.03 92.02 57.95Q90.72 61.86 88.05 64.70Q85.38 67.55 81.29 69.17Q77.20 70.79 71.63 70.79L71.63 70.79Q70.76 70.79 69.66 70.71Q68.56 70.62 67.34 70.53Q66.12 70.45 64.88 70.36Q63.63 70.27 62.53 70.27L62.53 70.27ZM72.04 32.22L72.04 32.22Q70.53 32.22 69.14 32.25Q67.75 32.28 66.94 32.45L66.94 32.45L66.94 67.60Q67.23 67.66 67.98 67.69Q68.73 67.72 69.60 67.75Q70.47 67.78 71.26 67.78Q72.04 67.78 72.39 67.78L72.39 67.78Q76.39 67.78 79.17 66.27Q81.96 64.76 83.73 62.24Q85.50 59.72 86.31 56.41Q87.12 53.10 87.12 49.45L87.12 49.45Q87.12 46.61 86.34 43.56Q85.55 40.52 83.78 37.99Q82.02 35.47 79.12 33.85Q76.22 32.22 72.04 32.22Z" fill="#fff"></path></svg>